<?xml version="1.0" encoding="UTF-8"?>
<svg width="45px" height="45px" viewBox="0 0 45 45" version="1.1" xmlns="http://www.w3.org/2000/svg" xmlns:xlink="http://www.w3.org/1999/xlink">
    <!-- Generator: Sketch 59.1 (86144) - https://sketch.com -->
    <title>Group 24</title>
    <desc>Created with Sketch.</desc>
    <defs>
        <polygon id="path-1" points="0.4195 0.369 1.4195 0.369 1.4195 0.887 0.4195 0.887"></polygon>
        <polygon id="path-3" points="0.6531 0.369 4.3111 0.369 4.3111 1.1777 0.6531 1.1777"></polygon>
        <polygon id="path-5" points="0.00035024019 0.8652 39.1845 0.8652 39.1845 34 0.00035024019 34"></polygon>
    </defs>
    <g id="Page-1" stroke="none" stroke-width="1" fill="none" fill-rule="evenodd">
        <g id="Desktop-HD-Project-Details" transform="translate(-210.000000, -482.000000)">
            <g id="Group-15" transform="translate(195.000000, 178.000000)">
                <g id="Group-8" transform="translate(1.000000, 101.000000)">
                    <g id="Group-9-Copy-3" transform="translate(0.000000, 186.000000)">
                        <g id="Group-24" transform="translate(36.500000, 40.000000) scale(1, -1) translate(-36.500000, -40.000000) translate(14.000000, 17.000000)">
                            <path d="M39.7164,13.4364 C39.0804,14.1714 37.1704,14.4024 36.5544,14.2764 C33.6984,13.6954 33.5434,10.4144 33.5434,10.4144 L24.9604,20.0324 C24.9604,20.0324 24.5324,20.5304 23.9854,21.1474 L25.2854,21.5284 C27.0064,18.9314 30.6264,15.9294 32.6454,13.9784 L32.7214,14.0114 C32.9564,15.5664 33.8034,17.0234 35.2174,17.9604 C35.9934,18.4754 36.8504,18.7524 37.7164,18.8564 C36.8664,20.9844 37.5924,23.4874 39.5774,24.8024 C39.6014,24.8184 39.6264,24.8264 39.6514,24.8414 C38.0044,28.0444 38.8934,31.9874 41.8204,34.1524 C43.1834,31.7044 44.1144,28.9634 44.4744,26.0104 C44.9294,22.2744 44.4234,18.6454 43.1664,15.3584 C40.5914,15.8344 39.7214,13.4074 39.7164,13.4364" id="Fill-1" fill="#0CBF61"></path>
                            <g id="Group-5" transform="translate(22.000000, 0.631400)">
                                <mask id="mask-2" fill="white">
                                    <use xlink:href="#path-1"></use>
                                </mask>
                                <g id="Clip-4"></g>
                                <path d="M0.5445,0.3705 C0.7955,0.3815 1.0415,0.3865 1.2945,0.4035 C1.0445,0.3915 0.7935,0.3725 0.5445,0.3705" id="Fill-3" fill="#0CBF61" mask="url(#mask-2)"></path>
                            </g>
                            <path d="M6.4097,10.7284 C9.5907,12.8354 13.7767,12.1404 16.1667,9.2784 C16.1897,9.2934 16.2077,9.3154 16.2297,9.3314 C18.2167,10.6464 20.8037,10.3384 22.4317,8.7274 C22.8647,9.4844 23.4547,10.1654 24.2307,10.6794 C25.3217,11.4024 26.5657,11.6844 27.7787,11.6064 C24.0797,19.6254 22.1167,20.6004 22.1167,20.6004 L23.2887,20.9434 C23.5607,20.5634 23.8687,20.1384 24.2237,19.6544 C29.1177,12.9814 30.2257,9.9384 30.2257,9.9384 C27.0417,9.1444 28.2217,6.2074 28.2217,6.2074 C23.0807,9.1234 21.1977,4.2424 21.1977,4.2424 C17.8567,5.1004 16.8047,3.3214 16.4827,1.7774 C11.9037,3.0204 7.8677,5.7034 4.9287,9.3604 C5.3547,9.8674 5.8287,10.3434 6.4097,10.7284" id="Fill-6" fill="#0CBF61"></path>
                            <g id="Group-10" transform="translate(23.000000, 0.631400)">
                                <mask id="mask-4" fill="white">
                                    <use xlink:href="#path-3"></use>
                                </mask>
                                <g id="Clip-9"></g>
                                <path d="M2.0201,0.5257 C1.5611,0.4697 1.1081,0.4567 0.6531,0.4287 C1.8541,0.5257 3.0821,0.6917 4.3111,0.9267 C3.5621,0.7557 2.7981,0.6207 2.0201,0.5257" id="Fill-8" fill="#0CBF61" mask="url(#mask-4)"></path>
                            </g>
                            <path d="M39.651,24.8417 C39.627,24.8257 39.601,24.8187 39.578,24.8027 C37.592,23.4877 36.867,20.9847 37.716,18.8567 C36.85,18.7527 35.994,18.4757 35.217,17.9607 C33.803,17.0237 32.957,15.5667 32.721,14.0117 L32.645,13.9787 C30.627,15.9297 27.006,18.9317 25.286,21.5287 L23.985,21.1477 C22.459,22.8707 20.005,25.5247 23.289,20.9437 L22.117,20.6007 C22.117,20.6007 24.08,19.6257 27.779,11.6067 C26.566,11.6847 25.322,11.4027 24.231,10.6797 C23.455,10.1647 22.865,9.4847 22.432,8.7277 C20.803,10.3387 18.216,10.6467 16.23,9.3307 C16.208,9.3157 16.19,9.2937 16.167,9.2787 C13.777,12.1407 9.59,12.8357 6.41,10.7287 C5.829,10.3437 5.355,9.8667 4.928,9.3607 C3.983,10.5357 3.156,11.8117 2.46082716,13.1757 C2.46,13.3387 2.463,13.4917 2.479,13.6127 C2.764,15.7687 4.995,17.1897 7.15,16.9047 C8.67,16.7037 10.114,16.1737 10.585,14.8317 C11.549,16.2167 12.984,16.5317 14.781,16.2947 C16.855,16.0217 18.408,14.4367 18.75,12.4967 C19.927,14.1187 21.948,15.0657 24.073,14.8017 L24.285,14.7737 C24.231,14.8627 24.178,14.9707 24.14,15.0587 C22.643,18.0647 19.168,23.4597 19.168,23.4597 C19.168,23.4597 23.377,24.9977 25.132,23.0707 C26.233,21.8447 27.902,20.2617 28.968,19.2737 C28.952,19.5247 28.967,19.7717 29,20.0167 C29.337,22.5647 31.685,24.3647 34.233,24.0287 C34.527,23.9887 34.817,23.9177 35.086,23.8167 C35.168,23.8047 35.247,23.7787 35.31,23.7527 C35.252,23.8107 35.207,23.8497 35.148,23.9067 C34.309,24.7327 33.852,25.9237 34.02,27.1967 C34.139,28.0957 34.559,28.8877 35.152,29.4747 C34.558,30.5167 34.292,31.7647 34.462,33.0557 C34.8,35.6137 36.77,37.5217 39.184,37.9327 C40.188,36.7777 41.067,35.5067 41.82,34.1527 C38.893,31.9877 38.005,28.0447 39.651,24.8417" id="Fill-11" fill="#00602B"></path>
                            <g id="Group-15" transform="translate(0.000000, 11.631400)">
                                <mask id="mask-6" fill="white">
                                    <use xlink:href="#path-5"></use>
                                </mask>
                                <g id="Clip-14"></g>
                                <path d="M34.4615,21.4242 C34.2915,20.1332 34.5585,18.8852 35.1515,17.8432 C34.5595,17.2562 34.1395,16.4642 34.0205,15.5662 C33.8525,14.2922 34.3095,13.1012 35.1485,12.2762 C35.2065,12.2182 35.2515,12.1792 35.3105,12.1212 C35.2465,12.1472 35.1675,12.1732 35.0855,12.1852 C34.8165,12.2862 34.5265,12.3582 34.2325,12.3972 C31.6855,12.7342 29.3365,10.9332 28.9995,8.3852 C28.9675,8.1402 28.9515,7.8932 28.9685,7.6422 C27.9015,8.6302 26.2325,10.2132 25.1325,11.4392 C23.3765,13.3662 19.1675,11.8282 19.1675,11.8282 C19.1675,11.8282 22.6435,6.4332 24.1405,3.4272 C24.1785,3.3392 24.2315,3.2322 24.2845,3.1422 L24.0725,3.1702 C21.9475,3.4342 19.9275,2.4872 18.7495,0.8652 C18.4075,2.8052 16.8555,4.3902 14.7805,4.6632 C12.9835,4.9012 11.5495,4.5852 10.5845,3.2002 C10.1135,4.5422 8.6695,5.0722 7.1495,5.2732 C4.9945,5.5582 2.7645,4.1372 2.4795,1.9812 C2.4635,1.8612 2.4595,1.7072 2.4605,1.5442 C1.3015,3.8132 0.4915,6.3052 0.1665,8.9802 C-1.3245,21.2152 7.3855,32.3432 19.6205,33.8342 C27.2695,34.7662 34.4845,31.7112 39.1845,26.3012 C36.7705,25.8902 34.8005,23.9832 34.4615,21.4242" id="Fill-13" fill="#062304" mask="url(#mask-6)"></path>
                            </g>
                            <path d="M21.1978,4.2421 C21.1978,4.2421 23.0808,9.1231 28.2208,6.2081 C28.2208,6.2081 27.0418,9.1441 30.2258,9.9381 C30.2258,9.9381 29.1178,12.9811 24.2238,19.6541 C23.8688,20.1381 23.5608,20.5631 23.2888,20.9431 C20.0058,25.5241 22.4588,22.8711 23.9848,21.1471 C24.5328,20.5301 24.9608,20.0321 24.9608,20.0321 L33.5438,10.4141 C33.5438,10.4141 33.6988,13.6951 36.5538,14.2761 C37.1708,14.4021 39.0808,14.1721 39.7168,13.4361 C39.7208,13.4071 40.5918,15.8351 43.1668,15.3581 C40.5688,8.5671 34.7308,3.2521 27.3108,1.5581 C26.0818,1.3231 24.8538,1.1571 23.6528,1.0601 C23.5338,1.0531 23.4138,1.0401 23.2948,1.0351 C23.0418,1.0171 22.7958,1.0131 22.5448,1.0021 C20.4578,0.9781 18.4248,1.2511 16.4828,1.7771 C16.8038,3.3211 17.8568,5.1001 21.1978,4.2421" id="Fill-16" fill="#B6EFCE"></path>
                            <path d="M19.5553,15.5995 C19.6193,16.5605 19.9283,17.4655 20.4513,18.2285 C19.7953,18.5895 19.1653,18.9855 18.5663,19.4115 C18.1733,18.0805 18.6433,16.7165 19.5553,15.5995 M29.9213,24.0435 C29.0193,25.1495 27.7903,25.8795 26.4233,25.7815 C26.7263,25.0905 26.9803,24.3955 27.1873,23.7065 C28.0343,24.0575 28.9763,24.1735 29.9213,24.0435 M11.8053,34.7005 C11.8663,35.1615 12.2953,35.4855 12.7603,35.4735 C18.7713,35.3295 23.2333,31.4795 25.5143,27.5635 C27.0303,27.8945 28.5873,27.5625 29.9403,26.6075 C31.2433,25.6875 32.2873,24.2545 32.8803,22.5735 C33.0163,22.1885 32.8903,21.7595 32.5683,21.5085 C32.2453,21.2575 31.7983,21.2415 31.4583,21.4675 C30.0283,22.4185 28.3103,22.4425 27.1843,21.5255 L22.5973,17.7915 C22.5883,17.7845 22.5823,17.7755 22.5743,17.7685 C21.4493,16.8525 21.1243,15.1675 21.7683,13.5775 C21.9213,13.1995 21.8153,12.7645 21.5053,12.4995 C21.3033,12.3275 21.0443,12.2505 20.7913,12.2775 C20.6563,12.2905 20.5223,12.3335 20.3993,12.4085 C18.8703,13.3265 17.6763,14.6375 17.0373,16.0985 C16.3693,17.6245 16.3623,19.2255 17.0043,20.6475 C16.0123,21.5255 10.8053,27.0965 11.8053,34.7005" id="Fill-18" fill="#FFFFFF"></path>
                            <path d="M16.8961,29.4403 C16.3801,29.0203 16.0471,28.3973 15.9801,27.7363 C15.9131,27.0743 16.1131,26.4013 16.5341,25.8853 C16.9541,25.3693 17.5771,25.0323 18.2381,24.9643 C18.8991,24.8973 19.5731,25.1023 20.0881,25.5223 C20.6041,25.9433 20.9411,26.5613 21.0081,27.2233 C21.0771,27.8843 20.8721,28.5623 20.4521,29.0783 C20.0351,29.5933 19.4131,29.9263 18.7501,29.9943 C18.0891,30.0613 17.4121,29.8613 16.8961,29.4403" id="Fill-20" fill="#062304"></path>
                            <polygon id="Fill-22" fill="#00602B" points="25.5094 40.0927 24.6604 38.4147 22.9834 37.5667 24.6604 36.7177 25.5094 35.0397 26.3584 36.7177 28.0354 37.5667 26.3584 38.4147"></polygon>
                        </g>
                    </g>
                </g>
            </g>
        </g>
    </g>
</svg>