<?xml version="1.0" encoding="UTF-8"?>
<svg width="45px" height="45px" viewBox="0 0 45 45" version="1.1" xmlns="http://www.w3.org/2000/svg" xmlns:xlink="http://www.w3.org/1999/xlink">
    <!-- Generator: Sketch 59.1 (86144) - https://sketch.com -->
    <title>Group 20</title>
    <desc>Created with Sketch.</desc>
    <defs>
        <polygon id="path-1" points="0 0.65420851 22.7293 0.65420851 22.7293 21.3808 0 21.3808"></polygon>
    </defs>
    <g id="Page-1" stroke="none" stroke-width="1" fill="none" fill-rule="evenodd">
        <g id="Desktop-HD-Project-Details" transform="translate(-1127.000000, -12.000000)">
            <g id="Header-1">
                <g id="Group-20" transform="translate(1127.000000, 12.000000)">
                    <g id="Group-3" transform="translate(0.000000, 11.614600)">
                        <mask id="mask-2" fill="white">
                            <use xlink:href="#path-1"></use>
                        </mask>
                        <g id="Clip-2"></g>
                        <path d="M3.7113,17.4978 C4.2383,16.7778 6.3753,17.0478 6.9743,17.2428 C9.8313,18.1768 8.9323,21.3808 8.9323,21.3808 L19.4163,13.6758 C19.4163,13.6758 21.6633,11.8618 22.7293,11.1508 L19.1223,11.8728 C16.8143,14.3098 12.5953,17.0998 11.2423,17.7078 L11.1733,17.6828 C11.7243,16.3368 11.7593,15.4708 10.5623,13.8918 C9.9993,13.1488 9.0203,12.8108 8.1523,12.7208 C9.3073,11.1818 9.5643,7.3338 5.3313,6.9488 C5.2033,6.9378 5.4833,6.8358 5.4593,6.8208 C7.1123,3.4788 5.8443,0.7938 3.4193,0.6798 C3.2383,0.6708 2.8523,0.6018 2.3503,0.7368 C0.1483,5.1498 -0.5317,10.1798 0.4173,15.0178 C3.2653,14.9518 3.7483,18.1038 3.7113,17.4978" id="Fill-1" fill="#3C5EEB" mask="url(#mask-2)"></path>
                    </g>
                    <path d="M39.4916,35.3965 C36.2786,33.3375 32.1036,34.0995 29.7596,36.9985 C29.7356,36.9825 29.7186,36.9615 29.6946,36.9475 C27.6886,35.6625 22.9316,35.3725 21.3286,37.0075 C21.1896,36.0705 21.0646,34.9845 19.7656,34.0795 C18.3706,33.1065 16.5556,33.8575 15.9376,34.2125 C19.2066,26.8245 24.6706,22.8815 25.5786,22.2625 C25.5546,22.2455 25.5316,22.2285 25.5056,22.2085 L23.1836,22.6735 C22.9136,23.0395 22.0176,23.9585 20.0716,25.7945 C14.0536,31.4745 12.4136,34.2665 12.4136,34.2665 C15.4026,35.6235 13.7126,38.2975 13.7126,38.2975 C19.2956,36.3595 20.2646,41.5005 20.2646,41.5005 C23.5126,41.2725 24.3376,42.9925 24.4516,44.5105 C28.4696,44.1255 32.4326,42.6675 35.8726,40.0315 C37.4856,38.7935 38.8616,37.3675 40.0376,35.8245 C39.8576,35.6785 39.6906,35.5235 39.4916,35.3965" id="Fill-4" fill="#3C5EEB"></path>
                    <path d="M37.9897,28.6983 C36.4757,28.9363 35.0457,29.5023 34.6077,30.8543 C33.6097,29.4943 32.1667,29.2143 30.3767,29.4953 C28.3097,29.8203 26.7977,31.4423 26.5027,33.3893 C24.4467,30.3503 22.0167,30.9193 19.8987,31.2353 L19.6877,31.2683 C19.7397,31.1773 19.7897,31.0693 19.8257,30.9803 C21.2487,27.9383 25.8147,22.4403 25.8147,22.4403 C25.8147,22.4403 25.7247,22.3693 25.5787,22.2623 C24.6707,22.8823 19.2067,26.8243 15.9377,34.2133 C16.5557,33.8573 18.3707,33.1063 19.7657,34.0793 C21.0647,34.9843 21.1897,36.0703 21.3287,37.0083 C22.9317,35.3723 27.6887,35.6623 29.6947,36.9473 C29.7187,36.9623 29.7357,36.9823 29.7597,36.9983 C32.1037,34.0993 36.2787,33.3383 39.4917,35.3963 C39.6907,35.5233 39.8577,35.6783 40.0377,35.8243 C41.0707,34.4683 41.9507,33.0233 42.6357,31.5003 C42.1057,29.5763 40.0077,28.3813 37.9897,28.6983" id="Fill-6" fill="#0E4689"></path>
                    <path d="M3.4194,12.294 C5.8444,12.408 7.1124,15.094 5.4594,18.436 C5.4834,18.45 5.2034,18.553 5.3314,18.564 C9.5644,18.948 9.3074,22.796 8.1524,24.335 C9.0204,24.425 9.9994,24.764 10.5624,25.506 C11.7594,27.085 11.7244,27.951 11.1734,29.297 L11.2424,29.322 C12.5954,28.714 16.8144,25.924 19.1224,23.487 L22.7294,22.766 C23.1774,22.466 23.4164,22.36 23.1844,22.674 L25.5054,22.209 C24.5774,21.543 21.7664,19.753 20.3524,21.384 C19.2814,22.637 16.5104,24.568 15.4694,25.583 C15.4804,25.331 15.4094,25.73 15.3714,25.485 C14.9724,22.946 13.2794,21.844 10.7404,22.242 C10.4474,22.289 10.1594,22.367 9.8934,22.476 C9.8124,22.488 9.7324,22.518 9.6704,22.544 C9.7284,22.485 9.7714,22.445 9.8284,22.386 C10.6474,21.54 11.0744,20.339 10.8754,19.069 C10.7344,18.174 10.2944,17.393 9.6884,16.821 C10.2554,15.765 10.4914,14.51 10.2894,13.224 C9.8564,10.47 7.5364,8.536 4.8564,8.426 C3.8734,9.656 3.0374,10.971 2.3504,12.352 C2.8524,12.216 3.2384,12.285 3.4194,12.294" id="Fill-8" fill="#0E4689"></path>
                    <path d="M10.2895,13.2237 C10.4915,14.5097 10.2555,15.7647 9.6875,16.8217 C10.2945,17.3927 10.7345,18.1737 10.8755,19.0697 C11.0745,20.3387 10.6465,21.5397 9.8285,22.3857 C9.7705,22.4457 9.7275,22.4857 9.6705,22.5437 C9.7325,22.5177 9.8115,22.4887 9.8935,22.4757 C10.1595,22.3677 10.4475,22.2887 10.7405,22.2427 C13.2795,21.8437 14.9725,22.9467 15.3715,25.4857 C15.4095,25.7297 15.4795,25.3307 15.4695,25.5827 C16.5105,24.5687 19.2815,22.6367 20.3525,21.3837 C21.7665,19.7527 24.5775,21.5427 25.5055,22.2087 C25.5315,22.2287 25.5555,22.2447 25.5785,22.2627 C25.7255,22.3697 25.8145,22.4407 25.8145,22.4407 C25.8145,22.4407 21.2485,27.9387 19.8255,30.9807 C19.7895,31.0697 19.7395,31.1777 19.6875,31.2687 L19.8985,31.2357 C22.0175,30.9187 24.4465,30.3507 26.5025,33.3897 C26.7975,31.4427 28.3105,29.8207 30.3765,29.4947 C32.1665,29.2137 33.6095,29.4947 34.6075,30.8547 C35.0455,29.5017 36.4765,28.9367 37.9895,28.6987 C40.0075,28.3807 42.1055,29.5767 42.6365,31.4997 C45.8995,24.2527 45.1815,15.4917 40.0075,8.7417 C32.5085,-1.0413 18.4985,-2.8923 8.7165,4.6067 C7.2395,5.7397 5.9665,7.0337 4.8555,8.4257 C7.5365,8.5367 9.8565,10.4697 10.2895,13.2237" id="Fill-10" fill="#040D28"></path>
                    <path d="M20.2651,41.5001 C20.2651,41.5001 19.2951,36.3591 13.7121,38.2981 C13.7121,38.2981 15.4031,35.6231 12.4131,34.2671 C12.4131,34.2671 14.0531,31.4751 20.0721,25.7951 C22.0181,23.9581 22.9131,23.0391 23.1841,22.6741 C23.4161,22.3601 23.1771,22.4661 22.7291,22.7661 C21.6631,23.4771 19.4161,25.2901 19.4161,25.2901 L8.9321,32.9951 C8.9321,32.9951 9.8311,29.7911 6.9741,28.8571 C6.3751,28.6621 4.2391,28.3931 3.7111,29.1121 C3.7481,29.7191 3.2651,26.5661 0.4171,26.6321 C1.0591,29.8981 2.4191,33.0751 4.5821,35.8971 C9.4441,42.2391 17.0411,45.2241 24.4521,44.5111 C24.3371,42.9921 23.5131,41.2721 20.2651,41.5001" id="Fill-12" fill="#C0D4FF"></path>
                    <path d="M23.5531,31.0518 C23.6101,30.0898 23.4161,29.1538 22.9931,28.3298 C23.6901,28.0548 24.3641,27.7408 25.0131,27.3948 C25.2351,28.7628 24.5981,30.0578 23.5531,31.0518 M14.3291,21.3728 C15.3631,20.3898 16.6731,19.8188 18.0181,20.0878 C17.6301,20.7348 17.2911,21.3928 16.9991,22.0498 C16.2021,21.5958 15.2821,21.3628 14.3291,21.3728 M33.6402743,13.0738 C33.6381,12.6098 33.2511,12.2348 32.7881,12.1878 C26.8081,11.5758 21.8981,14.8358 19.1431,18.4338 C17.6811,17.9148 16.0941,18.0488 14.6321,18.8268 C13.2231,19.5758 12.0071,20.8658 11.2091,22.4598 C11.0261,22.8248 11.0971,23.2658 11.3851,23.5558 C11.6731,23.8448 12.1151,23.9168 12.4801,23.7358 C14.0191,22.9708 15.7261,23.1628 16.7281,24.2138 L20.8101,28.4938 C20.8181,28.5028 20.8231,28.5128 20.8301,28.5208 C21.8321,29.5708 21.9421,31.2818 21.1031,32.7798 C20.9041,33.1358 20.9541,33.5798 21.2291,33.8818 C21.4071,34.0778 21.6551,34.1868 21.9081,34.1928 C22.0451,34.1958 22.1841,34.1698 22.3151,34.1128 C23.9471,33.3928 25.2951,32.2418 26.1131,30.8728 C26.9671,29.4428 27.1751,27.8558 26.7171,26.3638 C27.8121,25.6168 33.6771,20.7438 33.6402743,13.0738" id="Fill-14" fill="#FFFFFF"></path>
                    <path d="M27.9281,17.6534 C28.3871,18.1354 28.6401,18.7954 28.6231,19.4604 C28.6081,20.1254 28.3241,20.7674 27.8421,21.2264 C27.3601,21.6854 26.7001,21.9414 26.0351,21.9254 C25.3701,21.9094 24.7281,21.6214 24.2691,21.1394 C23.8101,20.6584 23.5541,20.0024 23.5701,19.3374 C23.5861,18.6734 23.8741,18.0264 24.3561,17.5674 C24.8331,17.1074 25.4931,16.8554 26.1581,16.8724 C26.8231,16.8874 27.4691,17.1724 27.9281,17.6534" id="Fill-16" fill="#040D28"></path>
                    <polygon id="Fill-18" fill="#3C5EEB" points="19.0766 5.8213 19.9256 7.4993 21.6026 8.3473 19.9256 9.1963 19.0766 10.8743 18.2286 9.1963 16.5506 8.3473 18.2286 7.4993"></polygon>
                </g>
            </g>
        </g>
    </g>
</svg>