<?xml version="1.0" encoding="UTF-8"?>
<svg width="45px" height="45px" viewBox="0 0 45 45" version="1.1" xmlns="http://www.w3.org/2000/svg" xmlns:xlink="http://www.w3.org/1999/xlink">
    <!-- Generator: Sketch 59.1 (86144) - https://sketch.com -->
    <title>Group 21</title>
    <desc>Created with Sketch.</desc>
    <defs>
        <polygon id="path-1" points="0.9094 0.364 43.635 0.364 43.635 31.8222 0.9094 31.8222"></polygon>
        <polygon id="path-3" points="0 0.9512 43.195 0.9512 43.195 26.3842 0 26.3842"></polygon>
    </defs>
    <g id="Page-1" stroke="none" stroke-width="1" fill="none" fill-rule="evenodd">
        <g id="Desktop-HD-Project-Details" transform="translate(-210.000000, -574.000000)">
            <g id="Group-15" transform="translate(195.000000, 178.000000)">
                <g id="Group-8" transform="translate(1.000000, 101.000000)">
                    <g id="Group-9-Copy-4" transform="translate(0.000000, 279.000000)">
                        <g id="Group-21" transform="translate(14.000000, 15.000000)">
                            <path d="M5.7595,25.3595 C7.8655,24.5385 10.7165,23.7935 14.4425,23.5485 L15.2635,25.6835 C15.2635,25.6835 11.1655,26.3315 7.8455,28.1835 C8.8625,29.1875 9.4215,30.6015 9.3105,32.0685 C10.1675,31.9075 11.0685,31.9165 11.9625,32.1745 C13.5925,32.6455 14.8365,33.7825 15.5265,35.1955 L15.6095,35.2045 C15.6665,35.0975 15.7135,35.0105 15.7615,34.9225 C16.5825,34.2255 19.2725,32.3505 20.9625,36.0105 C22.0955,35.5735 23.3675,35.4695 24.6245,35.8335 C25.5205,36.0905 26.2855,36.5635 26.9255,37.1575 C27.9975,35.1315 30.3735,34.0635 32.6615,34.7245 C32.6895,34.7325 32.7125,34.7475 32.7385,34.7555 C34.1625,31.3095 37.9485,29.3925 41.6135,30.4515 C42.1895,30.6175 42.7035,30.8775 43.1955,31.1675 C43.7715,29.6375 44.1735,28.0275 44.4025,26.3615 C43.4195,24.5225 40.9715,23.8895 39.0585,24.7805 C37.6695,25.4255 36.4495,26.3645 36.4025,27.7865 C35.0685,26.7535 33.6035,26.8805 31.9605,27.6455 C30.0635,28.5285 29.0565,30.5055 29.3115,32.4585 C27.7005,31.2625 25.4905,30.9635 23.5415,31.8525 L23.3475,31.9425 C23.3725,31.8405 23.3905,31.7225 23.4015,31.6275 C22.6375,25.8065 18.1775,28.5465 17.5105,28.9915 C17.5165,29.0115 17.5275,29.0305 17.5325,29.0515 C17.4885,29.0395 17.4785,29.0385 17.4505,29.0315 C17.4395,29.0395 17.4195,29.0525 17.4195,29.0525 C17.4195,29.0525 17.2505,28.9825 17.4505,29.0315 C17.4645,29.0215 17.4815,29.0105 17.5105,28.9915 C17.4515,28.7695 17.3745,28.5555 17.2805,28.3515 C16.1965,26.0205 18.5365,20.7145 16.0505,21.3645 C12.3135,22.3405 9.0465,23.2155 9.2145,23.1485 C10.3505,21.0395 10.1795,20.2245 9.3495,19.2435 C7.6995,17.2905 9.2825,18.0765 8.5415,17.6945 C7.5985,17.0535 6.5885,17.3905 6.5555,17.1215 C6.2325,14.5415 4.2895,13.7685 1.9095,14.3295 C1.3115,15.6845 0.8445,17.1075 0.5255,18.5875 C3.6235,19.5135 5.6315,22.2915 5.7595,25.3595" id="Fill-1" fill="#B75002"></path>
                            <path d="M17.4196,29.0529 C17.4196,29.0529 17.4396,29.0389 17.4506,29.0319 C17.2506,28.9829 17.4196,29.0529 17.4196,29.0529" id="Fill-3" fill="#331E01"></path>
                            <path d="M17.5329,29.0519 C17.5269,29.0309 17.5159,29.0119 17.5109,28.9909 C17.4809,29.0109 17.4649,29.0219 17.4509,29.0309 C17.4779,29.0379 17.4889,29.0389 17.5329,29.0519" id="Fill-5" fill="#331E01"></path>
                            <g id="Group-9" transform="translate(1.000000, 0.636100)">
                                <mask id="mask-2" fill="white">
                                    <use xlink:href="#path-1"></use>
                                </mask>
                                <g id="Clip-8"></g>
                                <path d="M5.5554,16.4852 C5.5884,16.7552 6.5984,16.4182 7.5414,17.0582 C8.2834,17.4402 6.7004,16.6542 8.3494,18.6072 C9.1794,19.5892 9.3504,20.4032 8.2144,22.5122 C8.0464,22.5802 11.3134,21.7052 15.0504,20.7282 C17.5364,20.0792 15.1964,25.3842 16.2804,27.7152 C16.3744,27.9202 16.4514,28.1332 16.5104,28.3552 C17.1774,27.9102 21.6374,25.1712 22.4014,30.9912 C22.3904,31.0872 22.3724,31.2052 22.3474,31.3062 L22.5414,31.2162 C24.4914,30.3282 26.7014,30.6272 28.3114,31.8222 C28.0564,29.8692 29.0634,27.8922 30.9604,27.0092 C32.6034,26.2452 34.0684,26.1172 35.4024,27.1502 C35.4504,25.7282 36.6694,24.7902 38.0584,24.1442 C39.9714,23.2542 42.4194,23.8862 43.4024,25.7252 C43.5554,24.6042 43.6524,23.4652 43.6324,22.2992 C43.4214,9.9752 33.2594,0.1562 20.9354,0.3672 C11.9494,0.5212 4.3154,5.9772 0.9094,13.6932 C3.2894,13.1322 5.2324,13.9052 5.5554,16.4852" id="Fill-7" fill="#331E01" mask="url(#mask-2)"></path>
                            </g>
                            <g id="Group-12" transform="translate(0.000000, 17.636100)">
                                <mask id="mask-4" fill="white">
                                    <use xlink:href="#path-3"></use>
                                </mask>
                                <g id="Clip-11"></g>
                                <path d="M41.614,12.8152 C37.949,11.7562 34.163,13.6732 32.739,17.1202 C32.713,17.1112 32.689,17.0962 32.662,17.0882 C30.374,16.4272 27.998,17.4962 26.926,19.5212 C26.286,18.9272 25.52,18.4552 24.625,18.1972 C23.368,17.8342 22.095,17.9372 20.963,18.3752 C19.272,14.7142 16.583,16.5892 15.761,17.2862 C15.714,17.3752 15.667,17.4612 15.609,17.5682 L15.526,17.5592 C14.837,16.1462 13.593,15.0092 11.963,14.5392 C11.068,14.2802 10.168,14.2712 9.31,14.4322 C9.422,12.9642 8.861,11.5502 7.845,10.5472 C11.166,8.6952 15.263,8.0472 15.263,8.0472 L14.442,5.9132 C10.717,6.1572 7.866,6.9022 5.76,7.7232 C5.632,4.6552 3.624,1.8772 0.525,0.9512 C0.168,2.5992 -0.028,4.3062 0.003,6.0642 C0.006,6.2052 0.026,6.3392 0.031,6.4782 C1.425,6.7182 2.534,7.7632 2.873,9.1212 C2.942,9.3982 2.99,9.6842 2.99,9.9832 C2.99,10.0652 2.971,10.1422 2.966,10.2222 C5.32,9.0572 10.084,6.9682 14.497,6.6792 L14.717,7.2812 C14.717,7.2812 4.321,9.1752 3.185,13.7142 C3.325,13.6982 3.461,13.6722 3.604,13.6722 C3.854,13.6722 4.097,13.7002 4.332,13.7492 C5.922,14.0802 7.12,15.4702 7.162,17.1492 C7.928,16.7362 9.159,16.5602 9.614,16.5762 C12.619,16.6752 12.648,20.0032 12.648,20.0032 L12.646,19.9212 C12.646,19.9212 14.289,18.3282 15.932,19.6722 C16.64,20.2522 16.729,21.3662 16.729,21.3662 C19.916,20.6692 20.314,23.7062 20.314,23.7062 C23.502,20.5692 25.902,25.0112 25.902,25.0112 C28.704,23.9812 29.995,25.0932 30.603,26.3842 C36.411,24.0582 40.994,19.3792 43.195,13.5312 C42.704,13.2412 42.189,12.9812 41.614,12.8152" id="Fill-10" fill="#FFA602" mask="url(#mask-4)"></path>
                            </g>
                            <path d="M25.902,42.6476 C25.902,42.6476 23.502,38.2056 20.314,41.3416 C20.314,41.3416 19.916,38.3046 16.729,39.0016 C16.729,39.0016 16.64,37.8876 15.932,37.3086 C14.29,35.9636 12.646,37.5576 12.646,37.5576 L12.648,37.6396 C12.648,37.6396 12.619,34.3116 9.614,34.2116 C9.159,34.1966 7.928,34.3726 7.162,34.7856 C7.12,33.1066 5.922,31.7156 4.332,31.3846 C4.097,31.3356 3.854,31.3086 3.604,31.3086 C3.462,31.3086 3.325,31.3346 3.185,31.3506 C4.321,26.8116 14.716,24.9176 14.716,24.9176 L14.497,24.3156 C10.084,24.6046 5.32,26.6936 2.965,27.8586 C2.971,27.7786 2.99,27.7016 2.99,27.6196 C2.99,27.3206 2.942,27.0356 2.873,26.7566 C2.534,25.3996 1.424,24.3546 0.031,24.1146 C0.463,36.2416 10.516,45.8416 22.7,45.6326 C25.497,45.5856 28.153,45.0016 30.603,44.0206 C29.995,42.7296 28.704,41.6176 25.902,42.6476" id="Fill-13" fill="#FFECC2"></path>
                            <path d="M13.5358,31.2287 C14.0138,30.3917 14.2568,29.4667 14.2428,28.5417 C14.9888,28.6047 15.7328,28.6237 16.4688,28.6007 C16.0588,29.9257 14.9128,30.8027 13.5358,31.2287 M9.5728,18.4587 C10.9358,18.0387 12.3628,18.1087 13.4478,18.9477 C12.8128,19.3547 12.2178,19.7927 11.6638,20.2527 C11.1508,19.4917 10.4318,18.8747 9.5728,18.4587 M30.5588,19.6057 C30.7648,19.1877 30.5848,18.6797 30.1908,18.4327 C25.1048,15.2277 19.2578,15.9657 15.1908,17.9647 C14.1108,16.8507 12.6308,16.2657 10.9748,16.3137 C9.3808,16.3587 7.7178,16.9737 6.2948,18.0467 C5.9688,18.2927 5.8358,18.7197 5.9658,19.1067 C6.0958,19.4947 6.4578,19.7547 6.8658,19.7537 C8.5848,19.7527 10.0278,20.6847 10.4598,22.0717 L12.2148,27.7187 C12.2178,27.7297 12.2178,27.7407 12.2218,27.7507 C12.6518,29.1367 11.9888,30.7197 10.5728,31.6887 C10.2358,31.9187 10.0848,32.3387 10.1958,32.7317 C10.2688,32.9877 10.4418,33.1937 10.6668,33.3117 C10.7878,33.3747 10.9238,33.4147 11.0658,33.4197 C12.8488,33.5007 14.5678,33.0697 15.9088,32.2067 C17.3088,31.3037 18.2008,29.9747 18.4538,28.4347 C19.7648,28.2517 27.1848,26.4927 30.5588,19.6057" id="Fill-15" fill="#FFFFFF"></path>
                            <path d="M23.4079,21.1701 C23.6049,21.8061 23.5389,22.5091 23.2279,23.0971 C22.9189,23.6861 22.3789,24.1351 21.7429,24.3321 C21.1079,24.5291 20.4029,24.4661 19.8139,24.1561 C19.2259,23.8461 18.7779,23.3031 18.5819,22.6671 C18.3849,22.0311 18.4459,21.3301 18.7559,20.7411 C19.0649,20.1531 19.6109,19.7021 20.2469,19.5051 C20.8789,19.3061 21.5819,19.3731 22.1699,19.6831 C22.7589,19.9921 23.2119,20.5341 23.4079,21.1701" id="Fill-17" fill="#331E01"></path>
                            <polygon id="Fill-19" fill="#B75002" points="19.4968 5.7726 20.3448 7.4506 22.0228 8.2986 20.3448 9.1476 19.4968 10.8256 18.6478 9.1476 16.9708 8.2986 18.6478 7.4506"></polygon>
                        </g>
                    </g>
                </g>
            </g>
        </g>
    </g>
</svg>